<?xml version="1.0" encoding="utf-8"?>
<!-- Generator: Adobe Illustrator 23.0.1, SVG Export Plug-In . SVG Version: 6.00 Build 0)  -->
<svg version="1.1" id="Layer_1" xmlns="http://www.w3.org/2000/svg" xmlns:xlink="http://www.w3.org/1999/xlink" x="0px" y="0px"
	 width="247.93px" height="127.24px" viewBox="0 0 247.93 127.24" style="enable-background:new 0 0 247.93 127.24;"
	 xml:space="preserve">
<style type="text/css">
	.st0{clip-path:url(#SVGID_2_);fill:#FFFFFF;}
	.st1{clip-path:url(#SVGID_4_);fill:#FFFFFF;}
	.st2{fill:#FFFFFF;}
	.st3{clip-path:url(#SVGID_6_);fill:#FFFFFF;}
	.st4{clip-path:url(#SVGID_8_);fill:#FFFFFF;}
	.st5{clip-path:url(#SVGID_10_);fill:#FFFFFF;}
	.st6{clip-path:url(#SVGID_12_);fill:#FFFFFF;}
	.st7{clip-path:url(#SVGID_14_);fill:#FFFFFF;}
	.st8{clip-path:url(#SVGID_16_);fill:#FFFFFF;}
	.st9{clip-path:url(#SVGID_18_);fill:#FFFFFF;}
	.st10{clip-path:url(#SVGID_20_);fill:#FFFFFF;}
	.st11{clip-path:url(#SVGID_22_);fill:#FFFFFF;}
</style>
<g>
	<g>
		<defs>
			<rect id="SVGID_1_" x="-478.54" y="-479.25" width="1152" height="864"/>
		</defs>
		<clipPath id="SVGID_2_">
			<use xlink:href="#SVGID_1_"  style="overflow:visible;"/>
		</clipPath>
		<path class="st0" d="M7.53,95.55c3.33,0,5.57-2.24,5.57-5.52v-0.05c0-3.27-2.25-5.57-5.57-5.57H4.38v11.14H7.53z M0.32,80.73h7.21
			c5.81,0,9.82,3.99,9.82,9.19v0.05c0,5.2-4.01,9.24-9.82,9.24H0.32V80.73z"/>
	</g>
	<g>
		<defs>
			<rect id="SVGID_3_" x="-478.54" y="-479.25" width="1152" height="864"/>
		</defs>
		<clipPath id="SVGID_4_">
			<use xlink:href="#SVGID_3_"  style="overflow:visible;"/>
		</clipPath>
		<path class="st1" d="M38.81,90.03v-0.05c0-3.17-2.32-5.81-5.6-5.81c-3.27,0-5.54,2.59-5.54,5.76v0.05c0,3.17,2.32,5.81,5.6,5.81
			S38.81,93.2,38.81,90.03 M23.42,90.03v-0.05c0-5.25,4.15-9.56,9.85-9.56s9.8,4.25,9.8,9.51v0.05c0,5.26-4.15,9.56-9.85,9.56
			C27.51,99.53,23.42,95.28,23.42,90.03"/>
	</g>
</g>
<polygon class="st2" points="49.95,80.73 54.34,80.73 59.2,88.55 64.06,80.73 68.44,80.73 68.44,99.22 64.4,99.22 64.4,87.15 
	59.2,95.04 59.09,95.04 53.94,87.23 53.94,99.22 49.95,99.22 "/>
<path class="st2" d="M86.76,91.48l-2.46-6l-2.46,6H86.76z M82.48,80.6h3.75l7.92,18.62H89.9l-1.69-4.15H80.4l-1.69,4.15h-4.15
	L82.48,80.6z"/>
<rect x="100.47" y="80.73" class="st2" width="4.07" height="18.48"/>
<polygon class="st2" points="112.42,80.73 116.17,80.73 124.84,92.11 124.84,80.73 128.85,80.73 128.85,99.22 125.39,99.22 
	116.44,87.47 116.44,99.22 112.42,99.22 "/>
<polygon class="st2" points="141.84,82.66 135.63,82.66 135.63,80.73 150.16,80.73 150.16,82.66 143.95,82.66 143.95,99.22 
	141.84,99.22 "/>
<g>
	<g>
		<defs>
			<rect id="SVGID_5_" x="-478.54" y="-479.25" width="1152" height="864"/>
		</defs>
		<clipPath id="SVGID_6_">
			<use xlink:href="#SVGID_5_"  style="overflow:visible;"/>
		</clipPath>
		<path class="st3" d="M171.94,90.03v-0.05c0-4.2-3.06-7.63-7.29-7.63c-4.22,0-7.24,3.38-7.24,7.58v0.05c0,4.2,3.06,7.63,7.29,7.63
			S171.94,94.23,171.94,90.03 M155.25,90.03v-0.05c0-5.1,3.83-9.56,9.45-9.56s9.4,4.41,9.4,9.51v0.05c0,5.1-3.83,9.56-9.45,9.56
			C159.03,99.53,155.25,95.12,155.25,90.03"/>
	</g>
	<g>
		<defs>
			<rect id="SVGID_7_" x="-478.54" y="-479.25" width="1152" height="864"/>
		</defs>
		<clipPath id="SVGID_8_">
			<use xlink:href="#SVGID_7_"  style="overflow:visible;"/>
		</clipPath>
		<path class="st4" d="M197.65,90.03v-0.05c0-4.2-3.06-7.63-7.29-7.63c-4.22,0-7.23,3.38-7.23,7.58v0.05c0,4.2,3.06,7.63,7.29,7.63
			C194.64,97.61,197.65,94.23,197.65,90.03 M180.97,90.03v-0.05c0-5.1,3.83-9.56,9.45-9.56c5.63,0,9.4,4.41,9.4,9.51v0.05
			c0,5.1-3.83,9.56-9.45,9.56C184.74,99.53,180.97,95.12,180.97,90.03"/>
	</g>
</g>
<polygon class="st2" points="207.5,80.73 209.59,80.73 209.59,97.29 219.99,97.29 219.99,99.22 207.5,99.22 "/>
<g>
	<g>
		<defs>
			<rect id="SVGID_9_" x="-478.54" y="-479.25" width="1152" height="864"/>
		</defs>
		<clipPath id="SVGID_10_">
			<use xlink:href="#SVGID_9_"  style="overflow:visible;"/>
		</clipPath>
		<path class="st5" d="M225.9,96.52l1.29-1.53c1.93,1.74,3.78,2.61,6.34,2.61c2.48,0,4.12-1.32,4.12-3.14v-0.05
			c0-1.72-0.92-2.69-4.81-3.51c-4.25-0.92-6.21-2.3-6.21-5.33v-0.05c0-2.9,2.56-5.04,6.08-5.04c2.69,0,4.62,0.77,6.5,2.27l-1.21,1.6
			c-1.72-1.4-3.43-2.01-5.34-2.01c-2.4,0-3.93,1.32-3.93,2.99v0.05c0,1.74,0.95,2.72,5.02,3.59c4.12,0.9,6.02,2.4,6.02,5.23v0.05
			c0,3.17-2.64,5.23-6.31,5.23C230.53,99.48,228.12,98.5,225.9,96.52"/>
	</g>
	<g>
		<defs>
			<rect id="SVGID_11_" x="-478.54" y="-479.25" width="1152" height="864"/>
		</defs>
		<clipPath id="SVGID_12_">
			<use xlink:href="#SVGID_11_"  style="overflow:visible;"/>
		</clipPath>
		<path class="st6" d="M101.69,38.78c-2-3.02-3.52-6.71-4.43-9.9l-7.81-2.52l0.06-8.13l-2.38,2.38l-0.01,8.13l7.79,2.52
			c0.89,3.45,2.61,7.26,4.74,10.4L101.69,38.78z"/>
	</g>
</g>
<polygon class="st2" points="97.9,45.8 95.96,48.62 102.03,54.77 104.74,52.78 "/>
<g>
	<g>
		<defs>
			<rect id="SVGID_13_" x="-478.54" y="-479.25" width="1152" height="864"/>
		</defs>
		<clipPath id="SVGID_14_">
			<use xlink:href="#SVGID_13_"  style="overflow:visible;"/>
		</clipPath>
		<path class="st7" d="M124.05,61.83l-2.55-8.26c-3.35-0.95-6.64-2.52-9.47-4.39l-2.91,2.04c3.09,2.1,6.59,3.77,9.99,4.66l2.55,8.17
			l8.13,0.06l2.38-2.27L124.05,61.83L124.05,61.83z"/>
	</g>
	<g>
		<defs>
			<rect id="SVGID_15_" x="-478.54" y="-479.25" width="1152" height="864"/>
		</defs>
		<clipPath id="SVGID_16_">
			<use xlink:href="#SVGID_15_"  style="overflow:visible;"/>
		</clipPath>
		<path class="st8" d="M126.8,44.92c-10.49-0.78-20.52-10.86-21.34-21.41c-0.74-9.54,6.62-14.82,15.66-12.73
			c8.35,1.92,16.18,9.72,18.2,18.14C141.52,38.1,136.33,45.63,126.8,44.92 M149.95,33.76l-1.84-6.48l-4.91-1.85
			c-1.16-2.68-2.65-5.21-4.46-7.53l1.67-3.52l-4.93-4.91L132,11.16c-2.32-1.78-4.84-3.29-7.5-4.43l-1.89-4.98L116.24,0l-0.39,4.54
			c-2.78-0.21-5.38,0.09-7.72,0.87l-5.61-4.29l-5.34,3.11l4.17,5.63c-1.71,1.97-2.18,4.4-2.79,7.32l-6.86-0.15v8.13l7.28,2.52
			c0.93,3.6,2.23,7.14,4.49,10.4L99,44.38l7.23,7.39l6.16-4.37c3.24,2.28,6.73,3.69,10.33,4.63l2.53,7.9h8.13l-0.2-7.5
			c2.91-0.63,5.37-1.77,7.32-3.53l5.71,4.32l3.06-5.45l-4.39-5.69c0.75-2.39,0.9-5.05,0.65-7.88L149.95,33.76z"/>
	</g>
	<g>
		<defs>
			<rect id="SVGID_17_" x="-478.54" y="-479.25" width="1152" height="864"/>
		</defs>
		<clipPath id="SVGID_18_">
			<use xlink:href="#SVGID_17_"  style="overflow:visible;"/>
		</clipPath>
		<path class="st9" d="M99.68,9.82l-3.44-4.66l-1.73,2.52l3.52,4.76C98.51,11.52,99.05,10.64,99.68,9.82"/>
	</g>
	<g>
		<defs>
			<rect id="SVGID_19_" x="-478.54" y="-479.25" width="1152" height="864"/>
		</defs>
		<clipPath id="SVGID_20_">
			<use xlink:href="#SVGID_19_"  style="overflow:visible;"/>
		</clipPath>
		<path class="st10" d="M140.22,50.88c-0.82,0.64-2.16,1.38-3.12,1.86l5.52,4.11l2.38-2.38L140.22,50.88z"/>
	</g>
	<g>
		<defs>
			<rect id="SVGID_21_" x="-478.54" y="-479.25" width="1152" height="864"/>
		</defs>
		<clipPath id="SVGID_22_">
			<use xlink:href="#SVGID_21_"  style="overflow:visible;"/>
		</clipPath>
		<path class="st11" d="M122.7,18.33l-6.22-1.42l2.42,18.34l6.67,0.67c1.25,0.12,2.36-0.01,3.29-0.36c0.91-0.34,1.65-0.9,2.21-1.62
			c0.54-0.71,0.91-1.58,1.07-2.58c0.16-0.99,0.13-2.1-0.12-3.32c-0.24-1.19-0.66-2.33-1.21-3.37s-1.25-2-2.06-2.85
			s-1.73-1.59-2.74-2.18C124.99,19.06,123.88,18.6,122.7,18.33 M122.58,31.27l-1.46-9.58l2.2,0.44c0.64,0.13,1.25,0.36,1.8,0.67
			s1.05,0.71,1.48,1.17c0.43,0.46,0.8,0.99,1.1,1.58s0.51,1.23,0.64,1.92c0.13,0.68,0.14,1.3,0.05,1.83c-0.09,0.54-0.29,1-0.59,1.36
			s-0.7,0.63-1.18,0.79c-0.49,0.16-1.08,0.2-1.74,0.11L122.58,31.27z"/>
	</g>
</g>
<rect x="149.32" y="121.97" class="st2" width="92.63" height="1.24"/>
<rect y="121.97" class="st2" width="91.95" height="1.24"/>
<g>
	<path class="st2" d="M107.84,117.4h1.71v9.71h-1.71V117.4z"/>
	<path class="st2" d="M112.14,117.4h4.33c1.22,0,2.18,0.36,2.8,0.97c0.51,0.53,0.8,1.25,0.8,2.09v0.03c0,1.59-0.96,2.55-2.32,2.94
		l2.62,3.68h-2.01l-2.39-3.38h-2.14v3.38h-1.71v-9.71H112.14z M116.34,122.21c1.22,0,2-0.64,2-1.62v-0.03
		c0-1.04-0.75-1.61-2.01-1.61h-2.48v3.26H116.34z"/>
	<path class="st2" d="M122.27,117.4h1.71v9.71h-1.71V117.4z"/>
	<path class="st2" d="M125.92,125.69l1.03-1.22c0.93,0.8,1.86,1.26,3.06,1.26c1.05,0,1.72-0.49,1.72-1.22v-0.03
		c0-0.69-0.39-1.07-2.19-1.48c-2.07-0.5-3.23-1.11-3.23-2.9v-0.03c0-1.66,1.39-2.82,3.31-2.82c1.42,0,2.54,0.43,3.52,1.22
		l-0.92,1.29c-0.87-0.65-1.75-1-2.63-1c-1,0-1.58,0.51-1.58,1.15v0.03c0,0.75,0.44,1.08,2.3,1.53c2.05,0.5,3.12,1.23,3.12,2.84v0.03
		c0,1.82-1.43,2.9-3.47,2.9C128.48,127.25,127.08,126.73,125.92,125.69z"/>
</g>
<path class="st2" d="M245.98,82.63c0,0.31-0.3,0.55-0.57,0.55h-0.88v-1.13h0.88C245.68,82.06,245.98,82.29,245.98,82.63
	 M246.45,84.75l-0.85-1.21c0.18,0,0.81-0.22,0.81-0.9c0-0.56-0.47-0.93-1-0.93h-1.29v3.04h0.42v-1.2h0.57l0.82,1.2H246.45z
	 M247.56,83.22c0,1.25-1.07,2.29-2.39,2.29c-1.32,0-2.39-1.04-2.39-2.29c0-1.29,1.07-2.29,2.39-2.29
	C246.49,80.93,247.56,81.93,247.56,83.22 M247.93,83.22c0-1.48-1.23-2.65-2.77-2.65c-1.53,0-2.77,1.18-2.77,2.65
	c0,1.46,1.24,2.65,2.77,2.65C246.71,85.87,247.93,84.68,247.93,83.22"/>
</svg>
