<?xml version="1.0" encoding="UTF-8"?><svg id="Layer_2" xmlns="http://www.w3.org/2000/svg" xmlns:xlink="http://www.w3.org/1999/xlink" viewBox="0 0 1141.16 196.59"><defs><style>.cls-1{fill:url(#linear-gradient);}.cls-2{fill:#1b1f29;}.cls-3{fill:#75839b;}.cls-4{fill:url(#linear-gradient-3);}.cls-5{fill:url(#linear-gradient-2);}</style><linearGradient id="linear-gradient" x1="-1241.38" y1="-1663.5" x2="-1275.81" y2="-1762.89" gradientTransform="translate(-1194.44 1761.91) rotate(74.31)" gradientUnits="userSpaceOnUse"><stop offset="0" stop-color="#1b1f29"/><stop offset="1" stop-color="#75839b"/></linearGradient><linearGradient id="linear-gradient-2" x1="-1269.21" y1="-1704.24" x2="-1187.03" y2="-1674.81" xlink:href="#linear-gradient"/><linearGradient id="linear-gradient-3" x1="-1237.78" y1="-1718.63" x2="-1294.97" y2="-1637.56" xlink:href="#linear-gradient"/></defs><g id="Layer_1-2"><g><path class="cls-2" d="M359.2,59.64c-5.06-4.75-10.97-8.41-17.72-10.96-6.76-2.55-14.15-3.83-22.16-3.83h-42.66v106.05h42.96c7.91,0,15.25-1.3,22.01-3.91,6.76-2.6,12.64-6.28,17.65-11.04,5.01-4.76,8.91-10.36,11.72-16.82,2.8-6.46,4.21-13.54,4.21-21.26s-1.4-15.07-4.21-21.48c-2.8-6.41-6.74-11.99-11.79-16.75Zm-12.39,55.43c-2.61,4.86-6.29,8.59-11.04,11.19-4.76,2.61-10.34,3.91-16.75,3.91h-18.63V65.58h18.63c6.31,0,11.84,1.28,16.6,3.83,4.76,2.55,8.46,6.26,11.12,11.12,2.65,4.86,3.98,10.59,3.98,17.2s-1.3,12.49-3.9,17.35Z"/><path class="cls-2" d="M442.06,81.17c-6.06-3.3-12.84-4.96-20.35-4.96s-14.57,1.68-20.58,5.03c-6.01,3.36-10.74,7.89-14.2,13.59-3.45,5.71-5.18,12.12-5.18,19.23s1.75,13.72,5.26,19.53c3.5,5.81,8.26,10.42,14.27,13.82,6.01,3.41,12.82,5.11,20.43,5.11s14.42-1.7,20.43-5.11c6.01-3.4,10.76-7.98,14.27-13.74,3.5-5.76,5.26-12.29,5.26-19.6s-1.75-13.54-5.26-19.3c-3.51-5.76-8.29-10.29-14.35-13.59Zm-6.01,42.13c-1.35,2.65-3.28,4.68-5.78,6.08-2.5,1.4-5.36,2.1-8.56,2.1s-6.06-.7-8.56-2.1c-2.5-1.4-4.46-3.43-5.86-6.08-1.4-2.65-2.1-5.68-2.1-9.09,0-3.2,.7-6.11,2.1-8.71,1.4-2.6,3.35-4.63,5.86-6.08,2.5-1.45,5.36-2.18,8.56-2.18s6.03,.73,8.49,2.18c2.45,1.45,4.38,3.45,5.78,6.01,1.4,2.55,2.1,5.48,2.1,8.79s-.68,6.44-2.03,9.09Z"/><path class="cls-2" d="M572.01,79.98c-4.41-2.35-9.36-3.53-14.87-3.53s-10.87,1.2-15.47,3.6c-3.1,1.62-5.76,3.72-7.99,6.29-2.1-2.62-4.61-4.77-7.55-6.44-4.06-2.3-8.59-3.45-13.59-3.45-5.51,0-10.39,1.13-14.65,3.38-1.9,1.01-3.62,2.21-5.18,3.6v-5.48h-23.13v73h23.13v-42.66c0-2.4,.53-4.45,1.58-6.16,1.05-1.7,2.48-3.03,4.28-3.98,1.8-.95,3.85-1.43,6.16-1.43,3.3,0,6.08,1.03,8.34,3.08,2.25,2.05,3.38,4.88,3.38,8.49v42.66h23.13v-42.66c0-2.4,.5-4.45,1.5-6.16,1-1.7,2.43-3.03,4.28-3.98,1.85-.95,3.88-1.43,6.08-1.43,3.2,0,5.93,1.03,8.19,3.08,2.25,2.05,3.38,4.88,3.38,8.49v42.66h23.13v-45.36c0-6.11-1.25-11.32-3.75-15.62-2.5-4.3-5.96-7.63-10.36-9.99Z"/><path class="cls-2" d="M648.91,83.84c-1.97-1.88-4.23-3.48-6.83-4.73-3.96-1.9-8.39-2.85-13.29-2.85-6.71,0-12.69,1.63-17.95,4.88-5.26,3.25-9.41,7.76-12.47,13.52-3.06,5.76-4.58,12.29-4.58,19.6s1.53,13.8,4.58,19.45c3.05,5.66,7.23,10.16,12.54,13.52,5.31,3.36,11.27,5.03,17.87,5.03,5.01,0,9.49-.95,13.44-2.85,2.55-1.23,4.76-2.79,6.68-4.62v5.97h22.68V77.76h-22.68v6.08Zm-3.53,42.73c-2.95,3.21-6.89,4.81-11.79,4.81-3.11,0-5.88-.73-8.34-2.18-2.46-1.45-4.41-3.48-5.86-6.08-1.45-2.6-2.18-5.56-2.18-8.86s.72-6.26,2.18-8.86c1.45-2.6,3.4-4.63,5.86-6.08,2.45-1.45,5.23-2.18,8.34-2.18s6.06,.73,8.56,2.18c2.5,1.45,4.41,3.45,5.71,6.01,1.3,2.55,1.95,5.48,1.95,8.79,0,5.11-1.48,9.26-4.43,12.47Z"/><path class="cls-2" d="M697.73,42.53c-3.51,0-6.46,1.2-8.86,3.6-2.4,2.4-3.6,5.41-3.6,9.01s1.2,6.51,3.6,9.01c2.4,2.5,5.36,3.75,8.86,3.75,3.7,0,6.68-1.25,8.94-3.75,2.25-2.5,3.38-5.51,3.38-9.01s-1.13-6.61-3.38-9.01c-2.25-2.4-5.23-3.6-8.94-3.6Z"/><rect class="cls-2" x="686.16" y="77.83" width="23.13" height="73"/><path class="cls-2" d="M781.69,80.33c-4.21-2.5-8.96-3.76-14.27-3.76-5.61,0-10.64,1.18-15.1,3.53-2.03,1.07-3.85,2.35-5.48,3.83v-5.86h-23.13v73h23.13v-41.61c0-2.5,.55-4.71,1.65-6.61,1.1-1.9,2.6-3.38,4.51-4.43,1.9-1.05,4.06-1.58,6.46-1.58,3.6,0,6.61,1.18,9.01,3.53,2.4,2.35,3.6,5.38,3.6,9.09v41.61h23.13v-46.71c0-5.01-1.2-9.64-3.6-13.89-2.4-4.26-5.71-7.63-9.91-10.14Z"/><polygon class="cls-2" points="873.21 45.01 783.08 45.01 783.08 65.74 816.28 65.74 816.28 151.06 840.16 151.06 840.16 65.74 873.21 65.74 873.21 45.01"/><path class="cls-2" d="M912.39,82.06c-6.06-3.3-12.84-4.96-20.35-4.96s-14.57,1.68-20.58,5.03c-6.01,3.36-10.74,7.89-14.2,13.59-3.45,5.71-5.18,12.12-5.18,19.23s1.75,13.72,5.26,19.53c3.5,5.81,8.26,10.42,14.27,13.82,6.01,3.41,12.82,5.11,20.43,5.11s14.42-1.7,20.43-5.11c6.01-3.4,10.76-7.98,14.27-13.74,3.5-5.76,5.26-12.29,5.26-19.6s-1.75-13.54-5.26-19.3c-3.51-5.76-8.29-10.29-14.35-13.59Zm-6.01,42.13c-1.35,2.65-3.28,4.68-5.78,6.08-2.5,1.4-5.36,2.1-8.56,2.1s-6.06-.7-8.56-2.1c-2.5-1.4-4.46-3.43-5.86-6.08-1.4-2.65-2.1-5.68-2.1-9.09,0-3.2,.7-6.11,2.1-8.71,1.4-2.6,3.35-4.63,5.86-6.08,2.5-1.45,5.36-2.18,8.56-2.18s6.03,.73,8.49,2.18c2.45,1.45,4.38,3.45,5.78,6.01,1.4,2.55,2.1,5.48,2.1,8.79s-.68,6.44-2.03,9.09Z"/><path class="cls-2" d="M998.91,81.19c-6.06-3.3-12.84-4.96-20.35-4.96s-14.57,1.68-20.58,5.03c-6.01,3.36-10.74,7.89-14.2,13.59-3.45,5.71-5.18,12.12-5.18,19.23s1.75,13.72,5.26,19.53c3.5,5.81,8.26,10.42,14.27,13.82,6.01,3.41,12.82,5.11,20.43,5.11s14.42-1.7,20.43-5.11c6.01-3.4,10.76-7.98,14.27-13.74,3.5-5.76,5.26-12.29,5.26-19.6s-1.75-13.54-5.26-19.3c-3.51-5.76-8.29-10.29-14.35-13.59Zm-6.01,42.13c-1.35,2.65-3.28,4.68-5.78,6.08-2.5,1.4-5.36,2.1-8.56,2.1s-6.06-.7-8.56-2.1c-2.5-1.4-4.46-3.43-5.86-6.08-1.4-2.65-2.1-5.68-2.1-9.09,0-3.2,.7-6.11,2.1-8.71,1.4-2.6,3.35-4.63,5.86-6.08,2.5-1.45,5.36-2.18,8.56-2.18s6.03,.73,8.49,2.18c2.45,1.45,4.38,3.45,5.78,6.01,1.4,2.55,2.1,5.48,2.1,8.79s-.68,6.44-2.03,9.09Z"/><rect class="cls-2" x="1026.84" y="41.72" width="23.13" height="109.05"/><path class="cls-2" d="M1087.27,95.61c1.3-.8,3.25-1.2,5.86-1.2s5.48,.58,8.34,1.73c2.85,1.15,5.43,3.08,7.74,5.78l13.07-13.37c-3.21-4.2-7.46-7.38-12.77-9.54-5.31-2.15-11.02-3.23-17.12-3.23s-11.37,1-15.77,3c-4.41,2-7.81,4.73-10.21,8.19-2.4,3.45-3.6,7.54-3.6,12.24s.85,8.16,2.55,10.97c1.7,2.8,3.9,5.01,6.61,6.61,2.7,1.6,5.56,2.88,8.56,3.83,3,.95,5.88,1.8,8.64,2.55,2.75,.75,4.98,1.55,6.68,2.4,1.7,.85,2.55,2.18,2.55,3.98,0,1.5-.73,2.65-2.18,3.45-1.45,.8-3.43,1.2-5.93,1.2-4.01,0-7.64-.73-10.89-2.18-3.26-1.45-6.13-3.48-8.64-6.08l-13.22,13.22c2.6,2.7,5.66,5.08,9.16,7.14,3.5,2.05,7.36,3.66,11.57,4.81,4.21,1.15,8.46,1.73,12.77,1.73,9.11,0,16.35-2.13,21.71-6.38,5.36-4.26,8.04-9.94,8.04-17.05,0-4.6-.85-8.34-2.56-11.19-1.7-2.85-3.9-5.16-6.61-6.91-2.7-1.75-5.56-3.1-8.56-4.06-3-.95-5.83-1.78-8.49-2.48-2.65-.7-4.86-1.5-6.61-2.4-1.75-.9-2.63-2.1-2.63-3.6,0-1.3,.65-2.35,1.95-3.15Z"/><path class="cls-3" d="M191.48,116.33c-6.66-3.27-11.24-10.12-11.24-18.04s4.58-14.77,11.24-18.04c3.97-1.95,5.98-6.44,4.74-10.68-2.08-7.1-4.91-13.88-8.4-20.25-2.12-3.87-6.72-5.6-10.89-4.17-7.02,2.39-15.1,.79-20.7-4.81-5.6-5.6-7.2-13.68-4.81-20.7,1.42-4.17-.31-8.77-4.17-10.89-6.37-3.49-13.15-6.32-20.25-8.4-4.24-1.24-8.73,.78-10.68,4.74-3.27,6.66-10.12,11.24-18.04,11.24s-14.77-4.58-18.04-11.24c-1.95-3.97-6.44-5.98-10.68-4.74-7.1,2.08-13.88,4.91-20.25,8.4-3.87,2.12-5.6,6.72-4.17,10.89,2.39,7.02,.79,15.1-4.81,20.7-5.6,5.6-13.68,7.2-20.7,4.81-4.17-1.42-8.77,.31-10.89,4.17-3.49,6.37-6.32,13.15-8.4,20.25-1.24,4.24,.78,8.73,4.74,10.68,6.66,3.27,11.24,10.12,11.24,18.04s-4.58,14.77-11.24,18.04c-3.97,1.95-5.98,6.44-4.74,10.68,2.08,7.1,4.91,13.88,8.4,20.25,2.12,3.87,6.72,5.6,10.89,4.17,7.02-2.39,15.1-.79,20.7,4.81,5.6,5.6,7.2,13.68,4.81,20.7-1.42,4.17,.31,8.77,4.17,10.89,6.37,3.49,13.15,6.32,20.25,8.4,4.24,1.24,8.73-.78,10.68-4.74,3.27-6.66,10.12-11.24,18.04-11.24s14.77,4.58,18.04,11.24c1.95,3.97,6.44,5.98,10.68,4.74,7.1-2.08,13.88-4.91,20.25-8.4,3.87-2.12,5.6-6.72,4.17-10.89-2.39-7.02-.79-15.1,4.81-20.7,5.6-5.6,13.68-7.2,20.7-4.81,4.17,1.42,8.77-.31,10.89-4.17,3.49-6.37,6.32-13.15,8.4-20.25,1.24-4.24-.78-8.73-4.74-10.68Zm-93.19,19.82c-20.91,0-37.86-16.95-37.86-37.86s16.95-37.86,37.86-37.86,37.86,16.95,37.86,37.86-16.95,37.86-37.86,37.86Z"/><path class="cls-1" d="M133.17,34.2c5.06,4.98,9.02,10.66,11.88,16.73,8.77,18.62,7.16,40.92-4.86,58.22-1.88,2.71-4,5.3-6.39,7.73-6.78,6.88-14.85,11.71-23.43,14.52-1.73,.63-3.5,1.11-5.29,1.46-11.01,2.13-22.84-1.01-31.43-9.47-8.62-8.49-11.94-20.33-9.93-31.41-1.9,8.9-1.77,18.37,.82,27.74,.91,3.29,2.09,6.42,3.5,9.4,8.97,19.06,27.48,31.6,47.99,33.32,6.69,.56,13.58-.03,20.43-1.92,20.35-5.62,35.2-21.33,40.64-40.24,.26-.93,.51-1.86,.73-2.79,6.48-26.96-.91-56.56-22.11-77.44-21.21-20.89-50.94-27.83-77.82-20.92,19.12-4.78,40.2,.21,55.27,15.06Z"/><path class="cls-5" d="M33.96,81.55c-3.83,5.51-6.77,11.78-8.55,18.65-5.21,20.03,.64,40.33,13.74,54.47,.56,.59,1.11,1.18,1.7,1.76,.09,.09,.19,.18,.28,.27,.63,.62,1.28,1.21,1.93,1.81,32.28,29.69,82.53,28.66,113.54-2.83,10.08-10.24,16.91-22.47,20.5-35.4-5.44,18.91-20.29,34.62-40.64,40.24-6.85,1.89-13.74,2.48-20.43,1.92-20.51-1.72-39.02-14.26-47.99-33.32-1.4-2.98-2.59-6.12-3.5-9.4-2.59-9.38-2.72-18.85-.82-27.74,.32-1.79,.79-3.55,1.39-5.28,1.66-4.77,4.38-9.26,8.16-13.1,13.12-13.32,34.24-13.98,48.16-1.87-6.8-6.23-15.18-10.94-24.73-13.42-3.3-.86-6.6-1.4-9.89-1.67-20.99-1.76-41.11,8-52.85,24.9Z"/><path class="cls-4" d="M74.97,19.95c-12.8,3.8-24.85,10.79-34.88,20.98-31.07,31.54-31.28,81.91-.95,113.74-13.09-14.14-18.94-34.43-13.74-54.47,1.79-6.87,4.72-13.14,8.55-18.65,11.74-16.9,31.86-26.66,52.85-24.9,3.29,.28,6.59,.82,9.89,1.67,9.55,2.48,17.92,7.19,24.73,13.42,.55,.48,1.09,.97,1.62,1.49,.59,.58,1.14,1.18,1.68,1.78,12.15,13.74,11.77,34.73-1.3,48-3.8,3.86-8.28,6.66-13.06,8.39,8.59-2.81,16.66-7.64,23.43-14.52,2.39-2.43,4.51-5.02,6.39-7.73,12.02-17.3,13.62-39.6,4.86-58.22-2.86-6.07-6.82-11.75-11.88-16.73-15.07-14.84-36.15-19.84-55.27-15.06-.98,.25-1.95,.52-2.92,.81Z"/><g><path class="cls-2" d="M1135.36,77.15c-2.55,0-4.63,2.08-4.63,4.63s2.08,4.63,4.63,4.63,4.63-2.08,4.63-4.63-2.08-4.63-4.63-4.63m0,10.43c-3.2,0-5.81-2.6-5.81-5.81s2.6-5.81,5.81-5.81,5.81,2.6,5.81,5.81-2.6,5.81-5.81,5.81"/><path class="cls-2" d="M1134.38,82.39v2.3h-1.57v-6.08h2.39c.8,0,1.38,.14,1.76,.41,.37,.27,.56,.69,.56,1.27,0,.4-.09,.73-.29,.99-.19,.25-.48,.45-.88,.56,.22,.05,.41,.17,.58,.33s.34,.43,.51,.79l.85,1.72h-1.67l-.74-1.51c-.15-.3-.3-.51-.46-.62-.15-.11-.36-.17-.61-.17h-.44Zm.66-1.08c.32,0,.56-.06,.7-.19,.14-.12,.22-.32,.22-.6s-.08-.47-.22-.6c-.14-.12-.38-.17-.7-.17h-.66v1.56h.66Z"/></g></g></g></svg>